<?xml version="1.0" encoding="UTF-8" standalone="no"?>
<svg
   xmlns:dc="http://purl.org/dc/elements/1.1/"
   xmlns:cc="http://creativecommons.org/ns#"
   xmlns:rdf="http://www.w3.org/1999/02/22-rdf-syntax-ns#"
   xmlns:svg="http://www.w3.org/2000/svg"
   xmlns="http://www.w3.org/2000/svg"
   xmlns:sodipodi="http://sodipodi.sourceforge.net/DTD/sodipodi-0.dtd"
   xmlns:inkscape="http://www.inkscape.org/namespaces/inkscape"
   width="210mm"
   height="210mm"
   viewBox="0 0 210 210"
   version="1.1"
   id="svg1201"
   inkscape:version="1.0.1 (3bc2e813f5, 2020-09-07)"
   sodipodi:docname="logo.svg">
  <defs
     id="defs1195" />
  <sodipodi:namedview
     id="base"
     pagecolor="#ffffff"
     bordercolor="#666666"
     borderopacity="1.0"
     inkscape:pageopacity="0.0"
     inkscape:pageshadow="2"
     inkscape:zoom="0.5"
     inkscape:cx="-78.55503"
     inkscape:cy="485.95833"
     inkscape:document-units="mm"
     inkscape:current-layer="layer1"
     inkscape:document-rotation="0"
     showgrid="false"
     inkscape:window-width="1916"
     inkscape:window-height="1044"
     inkscape:window-x="0"
     inkscape:window-y="16"
     inkscape:window-maximized="0" />
  <metadata
     id="metadata1198">
    <rdf:RDF>
      <cc:Work
         rdf:about="">
        <dc:format>image/svg+xml</dc:format>
        <dc:type
           rdf:resource="http://purl.org/dc/dcmitype/StillImage" />
        <dc:title></dc:title>
      </cc:Work>
    </rdf:RDF>
  </metadata>
  <g
     inkscape:label="Layer 1"
     inkscape:groupmode="layer"
     id="layer1">
    <text
       xml:space="preserve"
       style="font-style:normal;font-weight:normal;font-size:86.921px;line-height:1.25;font-family:sans-serif;fill:#000000;fill-opacity:1;stroke:none;stroke-width:2.17274;stroke-miterlimit:4;stroke-dasharray:none"
       x="83.24115"
       y="131.38266"
       id="text1185"
       inkscape:export-xdpi="96"
       inkscape:export-ydpi="96"><tspan
         sodipodi:role="line"
         id="tspan1183"
         x="83.24115"
         y="131.38266"
         style="font-style:normal;font-variant:normal;font-weight:bold;font-stretch:normal;font-family:'Liberation Serif';-inkscape-font-specification:'Liberation Serif';stroke-width:2.17274;stroke-miterlimit:4;stroke-dasharray:none">S</tspan></text>
    <g
       id="g1181"
       style="fill:#180000;fill-opacity:1;stroke:#000000;stroke-width:22.8359;stroke-miterlimit:4;stroke-dasharray:none;stroke-opacity:1"
       transform="matrix(0.51965784,0,0,-0.51965784,-102.38147,258.98856)"
       inkscape:export-xdpi="96"
       inkscape:export-ydpi="96">
      <g
         id="g1162"
         style="fill:#180000;fill-opacity:1;stroke:#000000;stroke-width:22.8359;stroke-miterlimit:4;stroke-dasharray:none;stroke-opacity:1">
        <g
           id="g1154"
           style="fill:#180000;fill-opacity:1;stroke:#000000;stroke-width:22.8359;stroke-miterlimit:4;stroke-dasharray:none;stroke-opacity:1">
          <g
             id="g1147"
             style="fill:#180000;fill-opacity:1;stroke:#000000;stroke-width:22.8359;stroke-miterlimit:4;stroke-dasharray:none;stroke-opacity:1">
            <g
               id="g1141"
               style="fill:#180000;fill-opacity:1;stroke:#000000;stroke-width:22.8359;stroke-miterlimit:4;stroke-dasharray:none;stroke-opacity:1">
              <g
                 id="g1136"
                 style="fill:#180000;fill-opacity:1;stroke:#000000;stroke-width:22.8359;stroke-miterlimit:4;stroke-dasharray:none;stroke-opacity:1">
                <g
                   id="g57"
                   transform="translate(399.6045,472.3511)"
                   style="fill:#180000;fill-opacity:1;stroke:#000000;stroke-width:22.8359;stroke-miterlimit:4;stroke-dasharray:none;stroke-opacity:1">
                  <path
                     d="m 0,0 c -97.139,0 -176.167,-79.027 -176.167,-176.166 0,-97.138 79.028,-176.167 176.167,-176.167 97.138,0 176.165,79.029 176.165,176.167 C 176.165,-79.027 97.138,0 0,0 m 0,-364.333 c -103.756,0 -188.167,84.412 -188.167,188.167 C -188.167,-72.411 -103.756,12 0,12 103.755,12 188.165,-72.411 188.165,-176.166 188.165,-279.921 103.755,-364.333 0,-364.333"
                     style="fill:#180000;fill-opacity:1;fill-rule:nonzero;stroke:#000000;stroke-width:22.8359;stroke-miterlimit:4;stroke-dasharray:none;stroke-opacity:1"
                     id="path59" />
                </g>
              </g>
            </g>
          </g>
        </g>
      </g>
    </g>
    <g
       id="g61"
       transform="matrix(0.51965784,0,0,-0.51965784,153.90779,88.580192)"
       inkscape:export-xdpi="96"
       inkscape:export-ydpi="96">
      <path
         d="m 0,0 c -1.186,-0.42 -2.384,-0.812 -3.589,-1.169 -0.966,-0.288 -1.523,-0.008 -1.849,0.935 -0.28,0.803 -0.498,1.631 -0.687,2.461 -0.195,0.858 0.395,1.173 1.073,1.398 2.05,0.684 4.095,1.395 6.156,2.048 1.643,0.519 3.32,0.929 4.959,1.46 l 18.784,6.145 c 0.838,0.28 1.336,-0.02 1.604,-0.822 0.218,-0.658 0.446,-1.312 0.678,-1.965 C 27.484,9.487 27.142,8.738 26.116,8.418 23.326,7.55 20.525,6.714 17.737,5.841 16.445,5.437 15.155,5.021 13.897,4.524 Z"
         style="fill:#000000;fill-opacity:1;fill-rule:evenodd;stroke:none"
         id="path63" />
    </g>
    <g
       id="g65"
       transform="matrix(0.51965784,0,0,-0.51965784,162.75466,75.249981)"
       inkscape:export-xdpi="96"
       inkscape:export-ydpi="96">
      <path
         d="m 0,0 c 0.273,-0.12 0.777,-0.218 1.105,-0.51 0.707,-0.623 1.361,-1.317 1.969,-2.04 0.695,-0.826 0.464,-1.668 -0.547,-1.999 -1.557,-0.51 -3.141,-0.933 -4.705,-1.426 -1.83,-0.579 -3.646,-1.201 -5.473,-1.794 -1.675,-0.542 -3.358,-1.062 -5.032,-1.605 -1.827,-0.593 -3.653,-1.189 -5.469,-1.809 -1.517,-0.517 -3.014,-1.096 -4.535,-1.599 -0.84,-0.277 -1.539,0.37 -1.457,1.317 0.075,0.847 0.183,1.692 0.317,2.531 0.158,0.981 0.918,1.603 1.984,1.915 1.774,0.518 3.514,1.147 5.277,1.695 1.915,0.596 3.852,1.122 5.759,1.738 1.705,0.549 3.382,1.185 5.075,1.772 1.687,0.585 3.378,1.159 5.071,1.729 C -0.516,-0.036 -0.352,-0.043 0,0"
         style="fill:#000000;fill-opacity:1;fill-rule:evenodd;stroke:none"
         id="path67" />
    </g>
    <g
       id="g69"
       transform="matrix(0.51965784,0,0,-0.51965784,167.88067,89.05012)"
       inkscape:export-xdpi="96"
       inkscape:export-ydpi="96">
      <path
         d="M 0,0 C 1.087,-0.018 1.513,-0.413 1.399,-1.253 1.26,-2.28 1.148,-3.359 0.729,-4.282 c -0.268,-0.593 -1,-1.138 -1.643,-1.372 -2.241,-0.814 -4.532,-1.498 -6.814,-2.205 -2.82,-0.876 -5.66,-1.697 -8.474,-2.597 -1.768,-0.566 -3.53,-1.163 -5.235,-1.884 -1.007,-0.427 -1.787,-0.437 -2.556,0.374 -0.586,0.617 -1.254,1.154 -1.829,1.78 -0.838,0.911 -0.592,1.68 0.558,2.046 3.343,1.062 6.674,2.163 10.017,3.223 2.899,0.92 5.818,1.782 8.716,2.712 1.818,0.585 3.609,1.256 5.418,1.878 C -0.672,-0.174 -0.216,-0.062 0,0"
         style="fill:#000000;fill-opacity:1;fill-rule:evenodd;stroke:none"
         id="path71" />
    </g>
    <g
       id="g73"
       transform="matrix(0.51965784,0,0,-0.51965784,173.66643,87.220149)"
       inkscape:export-xdpi="96"
       inkscape:export-ydpi="96">
      <path
         d="m 0,0 c -0.047,0.982 -0.151,1.966 -0.345,2.957 -0.1,0.518 -0.191,1.038 -0.279,1.558 V 4.514 c -0.002,0.016 -0.004,0.029 -0.009,0.044 -0.386,2.272 -0.726,4.55 -1.556,6.726 -0.038,0.095 -0.073,0.189 -0.11,0.284 -3.347,10.276 -9.412,15.964 -9.412,15.964 v -0.01 c -2.825,2.988 -6.086,5.487 -9.656,7.629 -0.752,0.451 -1.526,0.879 -2.33,1.218 -1.351,0.567 -2.766,0.985 -4.098,1.589 -2.038,0.924 -4.171,1.288 -6.381,1.396 -2.531,0.125 -5.04,-0.049 -7.479,-0.706 -0.06,-0.017 -0.117,-0.039 -0.177,-0.057 -3.4,-2.869 -6.289,-7.489 -7.629,-9.828 0.022,-0.002 0.044,0.003 0.063,0 -0.683,-1.029 -1.346,-2.349 -1.839,-3.43 -0.119,-0.185 -0.225,-0.374 -0.303,-0.57 -0.162,-0.412 -0.322,-0.826 -0.481,-1.242 l -0.053,-0.134 0.002,0.001 c -0.713,-1.865 -1.366,-3.76 -1.78,-5.697 -0.486,-2.285 -0.916,-4.597 -1.09,-6.933 l -0.006,0.005 c 0,0 -0.004,-0.083 -0.011,-0.228 -0.071,-1.047 -0.094,-2.097 -0.039,-3.153 0.007,-0.096 0.017,-0.194 0.025,-0.291 0.101,-3.752 0.622,-9.607 2.72,-13.803 l 0.002,0.003 c 0.417,-1.121 0.892,-2.221 1.463,-3.286 0.391,-0.728 0.809,-1.441 1.223,-2.156 l -0.015,-0.007 c 0,0 0.843,-1.694 2.316,-3.903 0.074,-0.124 0.148,-0.249 0.222,-0.372 0.054,-0.089 0.127,-0.178 0.209,-0.264 1.601,-2.308 3.82,-5.026 6.473,-6.978 l 0.004,0.009 c 1.589,-1.413 3.27,-2.72 5.107,-3.837 1.011,-0.616 2.123,-1.068 3.191,-1.591 l 8.547,-2.948 c 0.648,-0.115 1.299,-0.312 1.893,-0.592 1.018,-0.481 2.077,-0.924 3.069,-1.455 h 10.22 c -0.076,0.108 -0.146,0.219 -0.224,0.326 -1.926,2.654 -4.39,4.781 -7.426,6.163 -0.741,0.339 -1.433,0.821 -2.202,1.067 -1.551,0.494 -3.162,0.798 -4.705,1.312 -3.446,1.145 -6.501,3.062 -9.724,4.72 -12.267,6.308 -14.97,25.936 -14.97,25.936 -0.307,4.306 -0.108,8.646 1.478,12.777 0.124,0.323 0.151,0.683 0.27,1.005 0.452,1.208 0.808,2.47 1.414,3.595 1.039,1.934 2.227,3.792 3.388,5.658 0.069,0.114 0.117,0.212 0.152,0.305 0.493,0.808 1.487,2.219 2.954,3.386 0.19,0.029 0.374,0.066 0.557,0.117 2.157,0.617 4.269,0.037 6.216,-0.581 3.011,-0.954 5.851,-2.382 8.52,-4.184 3.33,-2.252 6.248,-4.849 8.498,-8.181 0.343,-0.525 1.128,-1.752 1.988,-3.261 0,0 6.532,-11.92 4.646,-22.183 l 0.002,0.002 c -0.257,-1.433 -0.598,-2.858 -0.942,-4.27 -0.422,-1.72 -1.174,-3.37 -1.881,-5.007 -0.571,-1.321 -1.16,-2.669 -1.985,-3.834 -1.214,-1.713 -2.633,-3.283 -3.984,-4.898 -0.146,-0.174 -0.244,-0.345 -0.291,-0.508 l 5.623,-3.715 c 0.366,-0.109 0.722,-0.024 1.009,0.346 1.329,1.716 2.745,3.39 3.843,5.249 0.082,0.14 0.151,0.289 0.231,0.432 l 0.002,-0.017 C 0.975,-12.595 0.023,0.066 0,0"
         style="fill:#000000;fill-opacity:1;fill-rule:evenodd;stroke:none"
         id="path75" />
    </g>
    <g
       id="g77"
       transform="matrix(0.51965784,0,0,-0.51965784,154.21631,121.85653)"
       inkscape:export-xdpi="96"
       inkscape:export-ydpi="96">
      <path
         d="m 0,0 c -1.223,0.294 -2.44,0.618 -3.646,0.978 -0.966,0.285 -1.282,0.823 -1.041,1.792 0.204,0.825 0.472,1.638 0.767,2.436 0.304,0.826 0.971,0.769 1.661,0.588 C -0.166,5.248 1.934,4.729 4.018,4.153 5.679,3.693 7.309,3.121 8.973,2.673 l 19.093,-5.091 c 0.857,-0.223 1.111,-0.746 0.898,-1.563 -0.176,-0.671 -0.341,-1.344 -0.503,-2.018 -0.249,-1.036 -0.945,-1.477 -1.979,-1.185 -2.813,0.793 -5.616,1.621 -8.43,2.409 -1.303,0.364 -2.612,0.72 -3.937,0.99 z"
         style="fill:#000000;fill-opacity:1;fill-rule:evenodd;stroke:none"
         id="path79" />
    </g>
    <g
       id="g81"
       transform="matrix(0.51965784,0,0,-0.51965784,168.90024,115.50698)"
       inkscape:export-xdpi="96"
       inkscape:export-ydpi="96">
      <path
         d="m 0,0 c 0.165,-0.249 0.532,-0.605 0.649,-1.03 0.253,-0.908 0.424,-1.845 0.538,-2.783 0.131,-1.071 -0.52,-1.652 -1.548,-1.377 -1.582,0.421 -3.142,0.931 -4.722,1.37 -1.849,0.512 -3.71,0.981 -5.565,1.48 -1.7,0.459 -3.395,0.941 -5.094,1.4 -1.856,0.499 -3.711,0.994 -5.57,1.464 -1.554,0.395 -3.125,0.725 -4.674,1.133 -0.855,0.225 -1.089,1.15 -0.504,1.899 0.524,0.67 1.077,1.319 1.647,1.949 0.667,0.736 1.644,0.842 2.708,0.522 1.768,-0.532 3.57,-0.954 5.347,-1.456 1.93,-0.545 3.841,-1.16 5.774,-1.684 1.73,-0.468 3.483,-0.851 5.22,-1.282 C -4.06,1.177 -2.329,0.734 -0.6,0.289 -0.45,0.251 -0.316,0.155 0,0"
         style="fill:#000000;fill-opacity:1;fill-rule:evenodd;stroke:none"
         id="path83" />
    </g>
    <g
       id="g85"
       transform="matrix(0.51965784,0,0,-0.51965784,165.67264,129.87012)"
       inkscape:export-xdpi="96"
       inkscape:export-ydpi="96">
      <path
         d="m 0,0 c 0.901,-0.606 1.042,-1.17 0.489,-1.813 -0.676,-0.785 -1.359,-1.628 -2.213,-2.173 -0.549,-0.351 -1.459,-0.409 -2.126,-0.255 -2.323,0.541 -4.615,1.217 -6.913,1.867 -2.842,0.805 -5.671,1.665 -8.521,2.446 -1.789,0.488 -3.593,0.949 -5.416,1.275 -1.077,0.191 -1.735,0.607 -1.938,1.706 -0.154,0.838 -0.421,1.652 -0.561,2.49 -0.207,1.22 0.42,1.73 1.582,1.411 3.383,-0.933 6.774,-1.826 10.154,-2.761 2.932,-0.81 5.85,-1.679 8.786,-2.478 1.843,-0.503 3.71,-0.917 5.565,-1.381 C -0.659,0.221 -0.216,0.065 0,0"
         style="fill:#000000;fill-opacity:1;fill-rule:evenodd;stroke:none"
         id="path87" />
    </g>
    <g
       id="g89"
       transform="matrix(0.51965784,0,0,-0.51965784,171.52081,130.3974)"
       inkscape:export-xdpi="96"
       inkscape:export-ydpi="96">
      <path
         d="M 0,0 C 0.495,0.85 0.943,1.73 1.322,2.667 1.52,3.154 1.729,3.641 1.938,4.124 H 1.937 c 0.007,0.014 0.012,0.027 0.017,0.04 0.915,2.116 1.871,4.212 2.362,6.489 0.021,0.099 0.043,0.199 0.064,0.297 2.799,10.439 0.815,18.515 0.815,18.515 L 5.189,29.456 c -0.738,4.045 -2.107,7.917 -3.934,11.661 -0.384,0.787 -0.799,1.569 -1.288,2.292 -0.823,1.211 -1.781,2.332 -2.569,3.565 -1.205,1.886 -2.794,3.354 -4.587,4.651 -2.055,1.484 -4.251,2.708 -6.655,3.485 -0.058,0.019 -0.12,0.032 -0.179,0.05 -4.414,-0.551 -9.355,-2.849 -11.752,-4.079 0.013,-0.013 0.037,-0.02 0.05,-0.034 -1.133,-0.489 -2.41,-1.236 -3.412,-1.872 -0.2,-0.09 -0.392,-0.191 -0.565,-0.314 -0.36,-0.257 -0.719,-0.516 -1.078,-0.778 C -30.85,48.035 -30.9,48 -30.9,48 h 0.003 c -1.614,-1.176 -3.196,-2.407 -4.597,-3.806 -1.654,-1.65 -3.276,-3.353 -4.695,-5.216 l -0.002,0.007 c 0,0 -0.049,-0.068 -0.134,-0.185 -0.63,-0.839 -1.222,-1.706 -1.752,-2.622 -0.047,-0.083 -0.092,-0.172 -0.139,-0.257 -1.961,-3.2 -4.716,-8.394 -5.245,-13.055 l 0.003,0.001 c -0.263,-1.166 -0.464,-2.346 -0.565,-3.551 -0.07,-0.824 -0.109,-1.649 -0.152,-2.473 l -0.016,0.002 c 0,0 -0.218,-1.88 -0.188,-4.535 -0.006,-0.144 -0.011,-0.289 -0.016,-0.432 -0.004,-0.105 0.01,-0.221 0.033,-0.336 0.082,-2.808 0.46,-6.297 1.619,-9.38 l 0.008,0.006 c 0.563,-2.051 1.258,-4.064 2.189,-6.001 0.513,-1.068 1.197,-2.054 1.808,-3.073 l 5.557,-7.132 c 0.479,-0.449 0.918,-0.969 1.264,-1.528 0.592,-0.96 1.236,-1.907 1.779,-2.893 l 8.568,-5.573 c -0.006,0.131 -0.004,0.262 -0.01,0.394 -0.169,3.276 -1.075,6.402 -2.864,9.215 -0.438,0.69 -0.754,1.47 -1.266,2.096 -1.029,1.26 -2.215,2.393 -3.228,3.666 -2.263,2.838 -3.781,6.111 -5.578,9.259 -6.842,11.975 1.594,29.904 1.594,29.904 2.092,3.776 4.626,7.304 8.208,9.903 0.279,0.203 0.497,0.491 0.774,0.696 1.037,0.766 2.023,1.629 3.144,2.243 1.928,1.053 3.935,1.964 5.926,2.895 0.121,0.057 0.214,0.113 0.294,0.171 0.852,0.409 2.457,1.051 4.323,1.23 0.174,-0.079 0.349,-0.151 0.53,-0.207 2.145,-0.66 3.6,-2.296 4.894,-3.876 2.004,-2.444 3.605,-5.188 4.859,-8.154 1.566,-3.705 2.594,-7.471 2.663,-11.492 0.002,-0.626 -0.009,-2.084 -0.111,-3.817 0,0 -1.023,-13.553 -8.202,-21.129 l 0.004,10e-4 c -0.998,-1.061 -2.061,-2.07 -3.121,-3.065 -1.29,-1.212 -2.821,-2.185 -4.306,-3.172 -1.198,-0.795 -2.428,-1.603 -3.754,-2.131 -1.952,-0.774 -3.998,-1.317 -6.01,-1.934 -0.217,-0.066 -0.392,-0.156 -0.522,-0.267 l 2.687,-6.18 c 0.249,-0.291 0.593,-0.413 1.036,-0.26 2.049,0.713 4.15,1.345 6.083,2.306 0.146,0.071 0.286,0.159 0.43,0.235 L -17.1,-15.518 C -6.051,-11.089 0.055,0.042 0,0"
         style="fill:#000000;fill-opacity:1;fill-rule:evenodd;stroke:none"
         id="path91" />
    </g>
    <g
       id="g93"
       transform="matrix(0.51965784,0,0,-0.51965784,136.06233,147.78563)"
       inkscape:export-xdpi="96"
       inkscape:export-ydpi="96">
      <path
         d="m 0,0 c -0.783,0.983 -1.544,1.988 -2.274,3.012 -0.587,0.82 -0.505,1.438 0.281,2.053 0.668,0.526 1.38,1.003 2.101,1.452 C 0.856,6.98 1.348,6.525 1.781,5.958 3.095,4.241 4.434,2.542 5.723,0.806 6.749,-0.578 7.684,-2.032 8.72,-3.407 l 11.928,-15.756 c 0.54,-0.702 0.418,-1.271 -0.252,-1.785 -0.55,-0.421 -1.095,-0.85 -1.637,-1.281 -0.833,-0.665 -1.655,-0.583 -2.289,0.282 -1.732,2.355 -3.434,4.73 -5.167,7.082 -0.804,1.088 -1.617,2.174 -2.497,3.201 z"
         style="fill:#000000;fill-opacity:1;fill-rule:evenodd;stroke:none"
         id="path95" />
    </g>
    <g
       id="g97"
       transform="matrix(0.51965784,0,0,-0.51965784,151.5475,151.80586)"
       inkscape:export-xdpi="96"
       inkscape:export-ydpi="96">
      <path
         d="m 0,0 c -0.023,-0.298 0.048,-0.806 -0.121,-1.212 -0.358,-0.872 -0.801,-1.715 -1.287,-2.524 -0.555,-0.926 -1.426,-0.984 -2.069,-0.136 -0.989,1.307 -1.905,2.667 -2.88,3.983 -1.145,1.542 -2.325,3.057 -3.48,4.591 -1.059,1.407 -2.099,2.828 -3.157,4.236 -1.157,1.533 -2.316,3.064 -3.493,4.579 -0.983,1.267 -2.019,2.494 -2.99,3.767 -0.536,0.703 -0.152,1.576 0.771,1.806 0.824,0.207 1.659,0.38 2.496,0.525 0.98,0.172 1.814,-0.346 2.458,-1.252 1.067,-1.508 2.228,-2.947 3.322,-4.436 1.187,-1.616 2.316,-3.277 3.519,-4.879 C -5.836,7.616 -4.689,6.236 -3.582,4.829 -2.479,3.424 -1.386,2.012 -0.296,0.597 -0.202,0.476 -0.155,0.317 0,0"
         style="fill:#000000;fill-opacity:1;fill-rule:evenodd;stroke:none"
         id="path99" />
    </g>
    <g
       id="g101"
       transform="matrix(0.51965784,0,0,-0.51965784,140.17136,161.14957)"
       inkscape:export-xdpi="96"
       inkscape:export-ydpi="96">
      <path
         d="m 0,0 c 0.338,-1.031 0.102,-1.563 -0.729,-1.729 -1.016,-0.205 -2.073,-0.45 -3.082,-0.354 -0.649,0.061 -1.401,0.574 -1.834,1.106 -1.499,1.855 -2.891,3.797 -4.303,5.722 -1.748,2.383 -3.449,4.8 -5.216,7.168 -1.111,1.485 -2.251,2.957 -3.489,4.335 -0.732,0.813 -0.994,1.546 -0.479,2.537 0.394,0.756 0.685,1.562 1.088,2.31 0.587,1.089 1.395,1.106 2.115,0.139 2.094,-2.814 4.221,-5.604 6.312,-8.42 1.814,-2.442 3.579,-4.92 5.404,-7.356 C -3.067,3.929 -1.85,2.454 -0.673,0.947 -0.385,0.579 -0.131,0.186 0,0"
         style="fill:#000000;fill-opacity:1;fill-rule:evenodd;stroke:none"
         id="path103" />
    </g>
    <g
       id="g105"
       transform="matrix(0.51965784,0,0,-0.51965784,144.45855,165.16071)"
       inkscape:export-xdpi="96"
       inkscape:export-ydpi="96">
      <path
         d="M 0,0 C 0.915,0.365 1.811,0.784 2.684,1.29 3.14,1.553 3.603,1.809 4.066,2.062 H 4.065 c 0.014,0.005 0.026,0.014 0.039,0.021 2.021,1.106 4.064,2.172 5.851,3.665 0.078,0.065 0.156,0.13 0.233,0.194 8.624,6.513 12.027,14.103 12.027,14.103 L 22.204,20.04 c 1.905,3.646 3.205,7.541 4.067,11.616 0.18,0.858 0.333,1.729 0.392,2.601 0.096,1.46 0.028,2.933 0.166,4.389 0.21,2.229 -0.142,4.364 -0.758,6.49 -0.708,2.433 -1.688,4.749 -3.106,6.84 -0.035,0.049 -0.074,0.098 -0.111,0.148 -3.82,2.28 -9.128,3.505 -11.777,4.01 0.004,-0.02 0.016,-0.039 0.021,-0.059 -1.196,0.312 -2.661,0.507 -3.843,0.622 -0.214,0.051 -0.427,0.09 -0.638,0.1 -0.442,0.019 -0.887,0.036 -1.33,0.049 -0.085,0.004 -0.144,0.008 -0.144,0.008 L 5.144,56.853 C 3.149,56.918 1.145,56.919 -0.82,56.678 -3.142,56.393 -5.466,56.046 -7.731,55.45 l 0.002,0.007 c 0,0 -0.08,-0.023 -0.218,-0.063 -1.014,-0.275 -2.014,-0.595 -2.993,-0.993 -0.091,-0.036 -0.179,-0.078 -0.269,-0.116 -3.515,-1.318 -8.879,-3.721 -12.162,-7.071 l 0.002,-10e-4 c -0.924,-0.758 -1.808,-1.567 -2.628,-2.453 -0.563,-0.608 -1.099,-1.235 -1.642,-1.858 l -0.01,0.012 c 0,0 -1.329,-1.35 -2.936,-3.463 -0.094,-0.108 -0.186,-0.22 -0.279,-0.33 -0.067,-0.079 -0.127,-0.18 -0.181,-0.285 -1.662,-2.264 -3.509,-5.248 -4.489,-8.393 h 0.01 c -0.817,-1.964 -1.506,-3.979 -1.963,-6.08 -0.254,-1.156 -0.319,-2.355 -0.464,-3.534 l -0.002,-9.042 c 0.102,-0.648 0.129,-1.328 0.057,-1.98 -0.124,-1.122 -0.197,-2.266 -0.375,-3.377 l 3.331,-9.662 c 0.076,0.106 0.158,0.21 0.234,0.316 1.882,2.687 3.089,5.709 3.406,9.029 0.079,0.813 0.311,1.623 0.291,2.431 -0.038,1.626 -0.275,3.249 -0.293,4.876 -0.039,3.629 0.777,7.143 1.294,10.73 1.967,13.653 19.643,22.606 19.643,22.606 3.971,1.693 8.138,2.916 12.561,2.765 0.346,-0.012 0.695,0.081 1.038,0.072 1.289,-0.033 2.598,0.043 3.86,-0.164 2.167,-0.354 4.309,-0.87 6.452,-1.36 0.132,-0.03 0.239,-0.042 0.34,-0.046 0.922,-0.201 2.582,-0.682 4.163,-1.687 0.09,-0.17 0.184,-0.334 0.292,-0.49 1.285,-1.838 1.427,-4.024 1.476,-6.066 0.079,-3.159 -0.345,-6.308 -1.18,-9.418 -1.044,-3.883 -2.549,-7.487 -4.965,-10.701 -0.385,-0.495 -1.289,-1.638 -2.435,-2.942 0,0 -9.14,-10.059 -19.459,-11.62 l 0.004,-0.001 c -1.44,-0.225 -2.898,-0.367 -4.345,-0.5 -1.764,-0.162 -3.57,0.01 -5.347,0.146 -1.434,0.109 -2.902,0.228 -4.272,0.626 -2.015,0.591 -3.961,1.42 -5.928,2.171 -0.213,0.081 -0.406,0.118 -0.577,0.11 l -1.678,-6.526 c 0.016,-0.383 0.213,-0.69 0.655,-0.842 2.055,-0.697 4.101,-1.49 6.216,-1.922 0.159,-0.033 0.322,-0.049 0.483,-0.078 l -0.015,-0.009 C -11.589,-5.025 0.07,0 0,0"
         style="fill:#000000;fill-opacity:1;fill-rule:evenodd;stroke:none"
         id="path107" />
    </g>
    <g
       id="g109"
       transform="matrix(0.51965784,0,0,-0.51965784,106.23729,156.81573)"
       inkscape:export-xdpi="96"
       inkscape:export-ydpi="96">
      <path
         d="M 0,0 C -0.03,1.257 -0.029,2.517 0.009,3.774 0.038,4.782 0.477,5.225 1.475,5.24 2.324,5.254 3.181,5.203 4.026,5.123 4.903,5.041 5.019,4.383 5.021,3.669 5.029,1.506 5.066,-0.656 5.044,-2.82 5.025,-4.543 4.89,-6.265 4.884,-7.987 L 4.856,-27.75 c 0.007,-0.884 -0.435,-1.264 -1.279,-1.268 -0.695,-0.003 -1.387,-0.014 -2.08,-0.03 -1.065,-0.026 -1.669,0.535 -1.652,1.609 0.046,2.922 0.126,5.843 0.167,8.765 0.018,1.353 0.027,2.708 -0.053,4.06 z"
         style="fill:#000000;fill-opacity:1;fill-rule:evenodd;stroke:none"
         id="path111" />
    </g>
    <g
       id="g113"
       transform="matrix(0.51965784,0,0,-0.51965784,116.1387,169.38188)"
       inkscape:export-xdpi="96"
       inkscape:export-ydpi="96">
      <path
         d="m 0,0 c -0.199,-0.223 -0.448,-0.67 -0.827,-0.891 -0.815,-0.477 -1.677,-0.882 -2.555,-1.233 -1,-0.401 -1.729,0.079 -1.727,1.143 0.002,1.638 0.094,3.276 0.114,4.916 0.021,1.919 -0.003,3.838 0.004,5.758 0.008,1.761 0.039,3.522 0.046,5.284 0.008,1.92 0.01,3.84 -0.012,5.759 -0.017,1.604 -0.1,3.206 -0.104,4.808 -0.001,0.884 0.833,1.347 1.707,0.973 0.782,-0.334 1.55,-0.702 2.305,-1.092 0.884,-0.455 1.236,-1.373 1.2,-2.484 C 0.091,21.096 0.145,19.246 0.115,17.399 0.083,15.396 -0.022,13.391 -0.032,11.387 -0.043,9.596 0.037,7.803 0.068,6.013 0.097,4.227 0.113,2.441 0.126,0.654 0.128,0.501 0.069,0.347 0,0"
         style="fill:#000000;fill-opacity:1;fill-rule:evenodd;stroke:none"
         id="path115" />
    </g>
    <g
       id="g117"
       transform="matrix(0.51965784,0,0,-0.51965784,101.42817,169.94416)"
       inkscape:export-xdpi="96"
       inkscape:export-ydpi="96">
      <path
         d="m 0,0 c -0.354,-1.026 -0.863,-1.308 -1.627,-0.937 -0.932,0.453 -1.921,0.896 -2.667,1.583 -0.481,0.44 -0.768,1.304 -0.791,1.989 -0.074,2.384 -0.008,4.773 0.031,7.161 0.049,2.953 0.156,5.907 0.18,8.862 0.013,1.855 -0.003,3.716 -0.156,5.562 -0.092,1.09 0.142,1.833 1.153,2.31 0.77,0.365 1.487,0.83 2.262,1.182 1.126,0.513 1.781,0.038 1.769,-1.168 C 0.119,23.036 0.126,19.528 0.09,16.022 0.058,12.979 -0.035,9.938 -0.055,6.895 -0.068,4.983 0.012,3.072 0.037,1.161 0.045,0.693 0.008,0.226 0,0"
         style="fill:#000000;fill-opacity:1;fill-rule:evenodd;stroke:none"
         id="path119" />
    </g>
    <g
       id="g121"
       transform="matrix(0.51965784,0,0,-0.51965784,102.41801,175.73148)"
       inkscape:export-xdpi="96"
       inkscape:export-ydpi="96">
      <path
         d="m 0,0 c 0.947,-0.262 1.915,-0.47 2.917,-0.596 0.522,-0.066 1.045,-0.142 1.566,-0.221 v 0.001 c 0.015,-0.003 0.029,-0.004 0.043,-0.006 2.281,-0.342 4.551,-0.729 6.878,-0.619 0.1,0.004 0.202,0.008 0.303,0.013 10.807,-0.028 18.105,3.96 18.105,3.96 l -0.01,0.003 c 3.721,1.75 7.111,4.068 10.263,6.793 0.663,0.573 1.311,1.174 1.884,1.832 0.959,1.106 1.798,2.32 2.788,3.396 1.514,1.648 2.526,3.561 3.32,5.628 0.908,2.365 1.526,4.803 1.663,7.325 0.002,0.061 0,0.125 0,0.186 -1.662,4.125 -5.152,8.312 -6.955,10.315 -0.008,-0.018 -0.01,-0.041 -0.019,-0.059 -0.764,0.971 -1.811,2.012 -2.685,2.819 -0.138,0.17 -0.285,0.33 -0.447,0.465 -0.34,0.283 -0.684,0.564 -1.029,0.843 -0.065,0.054 -0.111,0.093 -0.111,0.093 l 0.001,-10e-4 c -1.549,1.259 -3.146,2.472 -4.858,3.467 -2.019,1.176 -4.081,2.306 -6.246,3.201 l 0.007,0.004 c 0,0 -0.078,0.03 -0.213,0.083 -0.973,0.393 -1.962,0.742 -2.984,1.019 -0.093,0.025 -0.19,0.045 -0.284,0.07 -3.595,1.075 -9.322,2.405 -13.963,1.722 L 9.936,51.734 C 8.742,51.688 7.549,51.58 6.358,51.369 5.544,51.226 4.738,51.052 3.928,50.883 l -0.002,0.015 c 0,0 -1.871,-0.271 -4.43,-0.982 -0.142,-0.03 -0.282,-0.062 -0.423,-0.095 -0.1,-0.022 -0.209,-0.065 -0.316,-0.117 -2.693,-0.798 -5.968,-2.058 -8.65,-3.971 l 0.007,-0.004 c -1.838,-1.072 -3.605,-2.259 -5.24,-3.656 -0.9,-0.768 -1.678,-1.683 -2.505,-2.534 l -5.471,-7.201 c -0.311,-0.578 -0.7,-1.136 -1.152,-1.611 -0.777,-0.82 -1.525,-1.686 -2.341,-2.464 l -3.189,-9.709 c 0.124,0.039 0.253,0.071 0.378,0.11 3.123,1.003 5.911,2.679 8.174,5.131 0.553,0.601 1.226,1.106 1.701,1.761 0.952,1.318 1.744,2.755 2.714,4.06 2.163,2.914 4.939,5.221 7.52,7.765 9.821,9.683 29.313,6.125 29.313,6.125 4.187,-1.052 8.247,-2.598 11.676,-5.394 0.27,-0.217 0.602,-0.354 0.871,-0.569 1.007,-0.807 2.095,-1.537 2.976,-2.465 1.512,-1.592 2.905,-3.299 4.316,-4.984 0.086,-0.104 0.165,-0.178 0.243,-0.241 0.613,-0.72 1.643,-2.106 2.295,-3.864 C 42.362,25.802 42.337,25.612 42.329,25.424 42.242,23.182 41.032,21.356 39.837,19.699 37.99,17.137 35.748,14.885 33.202,12.912 30.022,10.45 26.645,8.49 22.777,7.393 22.171,7.229 20.76,6.867 19.059,6.521 c 0,0 -13.363,-2.485 -22.525,2.511 l 0.002,-0.003 c -1.282,0.692 -2.53,1.461 -3.762,2.23 -1.504,0.937 -2.837,2.167 -4.171,3.349 -1.077,0.955 -2.173,1.937 -3.022,3.082 -1.248,1.689 -2.298,3.527 -3.411,5.314 -0.119,0.193 -0.251,0.34 -0.392,0.435 l -5.284,-4.181 c -0.217,-0.315 -0.248,-0.68 0.013,-1.067 1.216,-1.798 2.365,-3.667 3.789,-5.29 0.107,-0.122 0.227,-0.234 0.337,-0.354 l -0.016,0.002 C -12.271,3.006 0.054,-0.042 0,0"
         style="fill:#000000;fill-opacity:1;fill-rule:evenodd;stroke:none"
         id="path123" />
    </g>
    <g
       id="g125"
       transform="matrix(0.51965784,0,0,-0.51965784,75.60259,146.48499)"
       inkscape:export-xdpi="96"
       inkscape:export-ydpi="96">
      <path
         d="M 0,0 C 0.746,1.012 1.519,2.008 2.318,2.979 2.957,3.759 3.575,3.841 4.375,3.242 5.054,2.732 5.7,2.169 6.32,1.588 6.963,0.987 6.652,0.396 6.217,-0.172 4.9,-1.887 3.607,-3.62 2.264,-5.317 1.196,-6.669 0.035,-7.947 -1.023,-9.307 L -13.138,-24.92 c -0.538,-0.704 -1.118,-0.733 -1.789,-0.219 -0.551,0.421 -1.105,0.836 -1.664,1.247 -0.857,0.632 -0.992,1.446 -0.323,2.285 1.826,2.283 3.677,4.543 5.497,6.831 0.842,1.058 1.678,2.125 2.442,3.242 z"
         style="fill:#000000;fill-opacity:1;fill-rule:evenodd;stroke:none"
         id="path127" />
    </g>
    <g
       id="g129"
       transform="matrix(0.51965784,0,0,-0.51965784,75.745245,162.48322)"
       inkscape:export-xdpi="96"
       inkscape:export-ydpi="96">
      <path
         d="m 0,0 c -0.295,-0.054 -0.766,-0.255 -1.201,-0.197 -0.936,0.119 -1.866,0.327 -2.774,0.587 -1.037,0.295 -1.319,1.121 -0.668,1.961 1.005,1.295 2.08,2.533 3.099,3.818 1.19,1.506 2.346,3.038 3.527,4.553 1.083,1.387 2.186,2.76 3.269,4.15 1.182,1.514 2.359,3.031 3.516,4.562 0.968,1.279 1.882,2.597 2.86,3.866 0.539,0.699 1.481,0.556 1.944,-0.275 0.415,-0.742 0.797,-1.504 1.157,-2.274 0.418,-0.901 0.137,-1.842 -0.572,-2.697 C 12.98,16.631 11.89,15.135 10.737,13.691 9.485,12.126 8.176,10.605 6.941,9.026 5.838,7.616 4.804,6.149 3.732,4.715 2.662,3.283 1.583,1.861 0.498,0.441 0.406,0.318 0.266,0.232 0,0"
         style="fill:#000000;fill-opacity:1;fill-rule:evenodd;stroke:none"
         id="path131" />
    </g>
    <g
       id="g133"
       transform="matrix(0.51965784,0,0,-0.51965784,63.766191,153.92612)"
       inkscape:export-xdpi="96"
       inkscape:export-ydpi="96">
      <path
         d="m 0,0 c -0.908,-0.595 -1.484,-0.505 -1.861,0.255 -0.461,0.928 -0.972,1.885 -1.141,2.884 -0.111,0.642 0.19,1.502 0.592,2.057 1.4,1.931 2.914,3.78 4.407,5.645 1.845,2.305 3.737,4.577 5.565,6.899 1.146,1.459 2.271,2.941 3.28,4.494 0.594,0.918 1.233,1.364 2.325,1.122 0.831,-0.182 1.686,-0.253 2.514,-0.45 1.203,-0.283 1.43,-1.059 0.684,-2.006 C 14.191,18.146 12.049,15.368 9.875,12.618 7.987,10.23 6.053,7.881 4.175,5.486 2.996,3.983 1.889,2.424 0.739,0.896 0.459,0.521 0.145,0.174 0,0"
         style="fill:#000000;fill-opacity:1;fill-rule:evenodd;stroke:none"
         id="path135" />
    </g>
    <g
       id="g137"
       transform="matrix(0.51965784,0,0,-0.51965784,61.007019,159.10851)"
       inkscape:export-xdpi="96"
       inkscape:export-ydpi="96">
      <path
         d="m 0,0 c 0.59,-0.787 1.227,-1.544 1.943,-2.257 0.373,-0.371 0.74,-0.752 1.104,-1.134 v 10e-4 c 0.01,-0.01 0.021,-0.02 0.031,-0.031 1.593,-1.665 3.154,-3.36 5.061,-4.698 0.082,-0.058 0.164,-0.116 0.247,-0.174 8.53,-6.636 16.743,-7.948 16.743,-7.948 l -0.007,0.01 c 4.015,-0.893 8.114,-1.136 12.274,-0.909 0.875,0.047 1.756,0.126 2.612,0.297 1.436,0.286 2.842,0.735 4.283,0.979 2.207,0.377 4.177,1.272 6.069,2.42 2.166,1.315 4.147,2.865 5.797,4.776 0.04,0.048 0.076,0.099 0.115,0.147 1.209,4.28 1.011,9.726 0.812,12.415 C 57.065,3.883 57.051,3.866 57.033,3.858 57.022,5.093 56.83,6.559 56.634,7.73 56.627,7.95 56.61,8.165 56.564,8.371 56.467,8.804 56.369,9.236 56.266,9.669 56.248,9.751 56.235,9.81 56.235,9.81 V 9.809 c -0.455,1.943 -0.976,3.879 -1.719,5.713 -0.878,2.167 -1.817,4.323 -2.982,6.354 h 0.008 c 0,0 -0.042,0.071 -0.119,0.195 -0.527,0.908 -1.097,1.788 -1.736,2.634 -0.058,0.075 -0.121,0.15 -0.181,0.227 -2.186,3.051 -5.901,7.608 -9.989,9.907 v -0.003 c -0.972,0.695 -1.983,1.34 -3.054,1.901 -0.731,0.385 -1.475,0.742 -2.218,1.102 l 0.008,0.015 c 0,0 -1.648,0.93 -4.107,1.933 -0.129,0.063 -0.26,0.124 -0.392,0.184 -0.093,0.044 -0.206,0.077 -0.321,0.101 -2.618,1.016 -5.98,2.023 -9.272,2.154 l 0.004,-0.01 c -2.111,0.277 -4.235,0.42 -6.382,0.315 C 12.6,42.475 11.426,42.227 10.25,42.06 L 1.518,39.712 C 0.918,39.445 0.27,39.243 -0.38,39.144 -1.496,38.97 -2.619,38.744 -3.739,38.627 l -8.463,-5.728 c 0.122,-0.045 0.242,-0.098 0.366,-0.143 3.084,-1.119 6.315,-1.499 9.604,-0.944 0.805,0.136 1.648,0.124 2.423,0.352 1.56,0.459 3.066,1.11 4.631,1.55 3.495,0.981 7.101,1.106 10.7,1.539 13.693,1.65 26.933,-13.092 26.933,-13.092 2.667,-3.394 4.931,-7.1 5.934,-11.412 0.079,-0.336 0.258,-0.648 0.341,-0.982 0.302,-1.255 0.715,-2.497 0.844,-3.771 0.221,-2.183 0.28,-4.387 0.364,-6.584 0.004,-0.135 0.021,-0.241 0.043,-0.339 0.046,-0.944 0.012,-2.671 -0.547,-4.46 -0.14,-0.129 -0.275,-0.263 -0.397,-0.408 -1.441,-1.72 -3.515,-2.424 -5.474,-3.003 -3.029,-0.896 -6.181,-1.306 -9.4,-1.307 -4.021,-10e-4 -7.893,0.515 -11.623,2.012 -0.58,0.243 -1.917,0.821 -3.475,1.587 0,0 -12.089,6.212 -16.279,15.77 V 9.261 c -0.592,1.332 -1.106,2.703 -1.612,4.065 -0.615,1.661 -0.917,3.449 -1.248,5.201 -0.268,1.414 -0.534,2.862 -0.505,4.287 0.046,2.1 0.341,4.196 0.555,6.29 0.022,0.227 0.008,0.421 -0.043,0.584 l -6.74,-0.074 c -0.363,-0.115 -0.611,-0.385 -0.641,-0.851 -0.139,-2.166 -0.374,-4.347 -0.241,-6.502 0.009,-0.161 0.036,-0.324 0.05,-0.488 l -0.012,0.013 C -7.865,9.885 0.018,-0.067 0,0"
         style="fill:#000000;fill-opacity:1;fill-rule:evenodd;stroke:none"
         id="path139" />
    </g>
    <g
       id="g141"
       transform="matrix(0.51965784,0,0,-0.51965784,55.892908,119.35162)"
       inkscape:export-xdpi="96"
       inkscape:export-ydpi="96">
      <path
         d="M 0,0 C 1.163,0.478 2.341,0.927 3.529,1.342 4.48,1.674 5.05,1.423 5.422,0.496 5.738,-0.293 5.997,-1.109 6.225,-1.93 6.462,-2.777 5.887,-3.12 5.221,-3.379 3.204,-4.157 1.198,-4.967 -0.831,-5.718 -2.446,-6.317 -4.103,-6.806 -5.714,-7.416 l -18.467,-7.037 c -0.824,-0.323 -1.336,-0.045 -1.642,0.742 -0.25,0.647 -0.507,1.289 -0.772,1.931 -0.404,0.986 -0.094,1.751 0.912,2.118 2.747,1.002 5.503,1.971 8.247,2.978 1.27,0.465 2.539,0.942 3.772,1.499 z"
         style="fill:#000000;fill-opacity:1;fill-rule:evenodd;stroke:none"
         id="path143" />
    </g>
    <g
       id="g145"
       transform="matrix(0.51965784,0,0,-0.51965784,47.696136,133.09007)"
       inkscape:export-xdpi="96"
       inkscape:export-ydpi="96">
      <path
         d="m 0,0 c -0.279,0.105 -0.787,0.181 -1.128,0.455 -0.738,0.589 -1.424,1.249 -2.065,1.943 -0.733,0.791 -0.544,1.644 0.45,2.023 1.531,0.584 3.093,1.082 4.631,1.65 1.8,0.666 3.586,1.375 5.381,2.055 1.647,0.621 3.302,1.222 4.951,1.845 1.795,0.679 3.591,1.363 5.374,2.069 1.491,0.589 2.958,1.239 4.454,1.814 0.824,0.318 1.555,-0.293 1.517,-1.246 C 23.534,11.759 23.465,10.91 23.37,10.066 23.26,9.078 22.53,8.422 21.48,8.058 19.734,7.456 18.025,6.744 16.291,6.11 14.407,5.424 12.498,4.808 10.623,4.1 8.946,3.469 7.3,2.754 5.64,2.086 3.981,1.42 2.32,0.766 0.655,0.115 0.513,0.061 0.347,0.06 0,0"
         style="fill:#000000;fill-opacity:1;fill-rule:evenodd;stroke:none"
         id="path147" />
    </g>
    <g
       id="g149"
       transform="matrix(0.51965784,0,0,-0.51965784,41.913438,119.55257)"
       inkscape:export-xdpi="96"
       inkscape:export-ydpi="96">
      <path
         d="m 0,0 c -1.086,-0.035 -1.531,0.341 -1.457,1.186 0.089,1.032 0.149,2.114 0.524,3.056 0.241,0.607 0.943,1.184 1.575,1.45 2.201,0.92 4.456,1.713 6.699,2.53 2.776,1.01 5.575,1.966 8.342,3 1.736,0.65 3.469,1.331 5.139,2.133 0.985,0.476 1.762,0.522 2.569,-0.251 0.615,-0.589 1.308,-1.092 1.913,-1.691 0.88,-0.867 0.671,-1.648 -0.459,-2.069 C 21.557,8.122 18.282,6.861 14.995,5.644 12.141,4.585 9.268,3.585 6.419,2.516 4.629,1.845 2.874,1.088 1.097,0.382 0.663,0.207 0.214,0.073 0,0"
         style="fill:#000000;fill-opacity:1;fill-rule:evenodd;stroke:none"
         id="path151" />
    </g>
    <g
       id="g153"
       transform="matrix(0.51965784,0,0,-0.51965784,36.860959,122.54467)"
       inkscape:export-xdpi="96"
       inkscape:export-ydpi="96">
      <path
         d="m 0,0 c 0.097,-0.979 0.247,-1.958 0.487,-2.938 0.125,-0.51 0.241,-1.027 0.354,-1.542 v 0.001 c 0.003,-0.015 0.008,-0.028 0.01,-0.043 0.495,-2.251 0.947,-4.51 1.88,-6.644 0.041,-0.092 0.081,-0.186 0.121,-0.278 3.836,-10.104 10.169,-15.495 10.169,-15.495 v 0.011 c 2.964,-2.849 6.34,-5.189 10.012,-7.157 0.771,-0.415 1.565,-0.806 2.385,-1.104 1.375,-0.502 2.809,-0.851 4.167,-1.391 2.081,-0.825 4.229,-1.086 6.442,-1.09 2.535,-0.002 5.033,0.291 7.437,1.066 0.057,0.019 0.116,0.045 0.172,0.066 3.26,3.027 5.923,7.781 7.151,10.182 -0.021,0.001 -0.044,-0.005 -0.063,-0.002 0.633,1.058 1.231,2.41 1.672,3.512 0.11,0.192 0.207,0.385 0.274,0.585 0.143,0.419 0.283,0.841 0.421,1.264 0.027,0.079 0.046,0.136 0.046,0.136 v -10e-4 c 0.622,1.897 1.183,3.822 1.502,5.774 0.377,2.309 0.695,4.637 0.758,6.979 l 0.006,-0.004 v 0.227 c 0.021,1.049 -0.008,2.098 -0.113,3.153 -0.011,0.094 -0.026,0.191 -0.038,0.288 -0.28,3.744 -1.084,9.567 -3.381,13.656 L 51.869,9.209 c -0.468,1.1 -0.996,2.176 -1.619,3.211 -0.425,0.709 -0.875,1.401 -1.323,2.095 l 0.014,0.008 c 0,0 -0.922,1.652 -2.501,3.788 -0.077,0.12 -0.158,0.241 -0.239,0.36 -0.058,0.087 -0.136,0.173 -0.222,0.254 -1.708,2.229 -4.056,4.837 -6.801,6.659 l -0.002,-0.008 c -1.657,1.333 -3.399,2.559 -5.286,3.587 -1.04,0.567 -2.173,0.965 -3.264,1.435 l -8.679,2.534 c -0.651,0.084 -1.31,0.25 -1.916,0.501 -1.044,0.431 -2.121,0.823 -3.138,1.306 L 6.685,34.448 c 0.081,-0.103 0.157,-0.212 0.238,-0.314 2.052,-2.559 4.615,-4.564 7.713,-5.799 0.759,-0.304 1.472,-0.752 2.252,-0.96 1.572,-0.419 3.197,-0.646 4.764,-1.085 3.495,-0.979 6.64,-2.746 9.938,-4.248 12.556,-5.712 16.199,-25.188 16.199,-25.188 0.513,-4.286 0.52,-8.63 -0.865,-12.833 -0.108,-0.328 -0.116,-0.689 -0.22,-1.017 -0.394,-1.229 -0.687,-2.504 -1.239,-3.658 -0.947,-1.982 -2.042,-3.894 -3.113,-5.815 -0.066,-0.117 -0.107,-0.217 -0.14,-0.312 -0.452,-0.83 -1.377,-2.287 -2.786,-3.524 -0.187,-0.038 -0.371,-0.083 -0.552,-0.142 -2.125,-0.721 -4.262,-0.243 -6.236,0.28 -3.055,0.811 -5.958,2.099 -8.712,3.771 -3.434,2.09 -6.472,4.545 -8.88,7.765 -0.367,0.506 -1.212,1.695 -2.143,3.16 0,0 -7.096,11.593 -5.705,21.935 L 7.197,6.462 c 0.188,1.444 0.46,2.885 0.737,4.31 0.338,1.74 1.01,3.423 1.638,5.093 0.506,1.347 1.031,2.721 1.797,3.924 1.131,1.77 2.473,3.406 3.745,5.084 0.138,0.182 0.226,0.356 0.267,0.522 l -5.795,3.44 C 9.215,28.926 8.864,28.824 8.595,28.442 7.35,26.665 6.015,24.924 5.008,23.013 4.934,22.87 4.872,22.718 4.798,22.57 L 4.795,22.588 C -1.577,12.533 -0.018,-0.066 0,0"
         style="fill:#000000;fill-opacity:1;fill-rule:evenodd;stroke:none"
         id="path155" />
    </g>
    <g
       id="g157"
       transform="matrix(0.51965784,0,0,-0.51965784,56.814261,88.939949)"
       inkscape:export-xdpi="96"
       inkscape:export-ydpi="96">
      <path
         d="M 0,0 C 1.162,-0.481 2.314,-0.994 3.45,-1.535 4.358,-1.97 4.586,-2.55 4.198,-3.468 3.865,-4.251 3.475,-5.012 3.057,-5.755 2.628,-6.523 1.979,-6.363 1.325,-6.077 c -1.98,0.869 -3.974,1.708 -5.944,2.604 -1.568,0.713 -3.088,1.535 -4.662,2.236 l -18.062,8.018 c -0.811,0.352 -0.979,0.909 -0.641,1.684 0.277,0.636 0.547,1.272 0.813,1.915 0.407,0.984 1.166,1.308 2.14,0.86 2.654,-1.225 5.292,-2.479 7.949,-3.698 1.229,-0.564 2.465,-1.121 3.733,-1.595 z"
         style="fill:#000000;fill-opacity:1;fill-rule:evenodd;stroke:none"
         id="path159" />
    </g>
    <g
       id="g161"
       transform="matrix(0.51965784,0,0,-0.51965784,41.317652,92.913508)"
       inkscape:export-xdpi="96"
       inkscape:export-ydpi="96">
      <path
         d="M 0,0 C -0.124,0.272 -0.43,0.682 -0.48,1.118 -0.587,2.056 -0.61,3.007 -0.575,3.951 -0.538,5.03 0.197,5.502 1.169,5.07 2.667,4.406 4.126,3.658 5.619,2.977 7.364,2.183 9.131,1.428 10.883,0.644 c 1.607,-0.719 3.206,-1.458 4.813,-2.179 1.754,-0.782 3.509,-1.562 5.271,-2.319 1.476,-0.632 2.974,-1.205 4.44,-1.85 0.81,-0.355 0.896,-1.304 0.2,-1.954 -0.622,-0.579 -1.268,-1.134 -1.93,-1.666 -0.774,-0.623 -1.756,-0.575 -2.757,-0.093 -1.663,0.803 -3.378,1.5 -5.054,2.274 -1.821,0.84 -3.61,1.748 -5.44,2.567 C 8.792,-3.842 7.122,-3.19 5.472,-2.493 3.826,-1.797 2.186,-1.092 0.546,-0.379 0.407,-0.318 0.289,-0.202 0,0"
         style="fill:#000000;fill-opacity:1;fill-rule:evenodd;stroke:none"
         id="path163" />
    </g>
    <g
       id="g165"
       transform="matrix(0.51965784,0,0,-0.51965784,46.753219,79.231896)"
       inkscape:export-xdpi="96"
       inkscape:export-ydpi="96">
      <path
         d="m 0,0 c -0.796,0.738 -0.846,1.318 -0.199,1.867 0.79,0.668 1.596,1.395 2.525,1.8 0.598,0.259 1.504,0.173 2.14,-0.082 2.21,-0.897 4.369,-1.924 6.537,-2.926 2.681,-1.238 5.34,-2.531 8.032,-3.748 1.69,-0.762 3.4,-1.5 5.15,-2.106 1.034,-0.358 1.618,-0.872 1.646,-1.989 0.022,-0.853 0.158,-1.697 0.167,-2.548 0.013,-1.237 -0.687,-1.643 -1.784,-1.145 -3.195,1.45 -6.406,2.863 -9.597,4.315 -2.772,1.259 -5.515,2.574 -8.291,3.822 -1.742,0.786 -3.52,1.487 -5.28,2.236 C 0.616,-0.322 0.204,-0.1 0,0"
         style="fill:#000000;fill-opacity:1;fill-rule:evenodd;stroke:none"
         id="path167" />
    </g>
    <g
       id="g169"
       transform="matrix(0.51965784,0,0,-0.51965784,41.059849,77.795993)"
       inkscape:export-xdpi="96"
       inkscape:export-ydpi="96">
      <path
         d="m 0,0 c -0.622,-0.762 -1.205,-1.563 -1.725,-2.428 -0.271,-0.45 -0.552,-0.898 -0.836,-1.343 h 0.002 c -0.01,-0.014 -0.015,-0.025 -0.024,-0.038 -1.234,-1.946 -2.505,-3.867 -3.347,-6.039 -0.036,-0.093 -0.073,-0.189 -0.11,-0.282 -4.398,-9.872 -3.702,-18.161 -3.702,-18.161 l 0.008,0.008 c 0.096,-4.11 0.842,-8.149 2.061,-12.132 0.255,-0.838 0.542,-1.675 0.914,-2.465 0.623,-1.325 1.393,-2.582 1.977,-3.923 0.896,-2.052 2.236,-3.751 3.803,-5.314 1.798,-1.786 3.776,-3.339 6.028,-4.482 0.055,-0.027 0.115,-0.051 0.17,-0.076 4.446,-0.148 9.685,1.349 12.247,2.188 -0.013,0.015 -0.033,0.026 -0.046,0.042 1.196,0.305 2.573,0.844 3.663,1.316 0.212,0.057 0.417,0.127 0.606,0.22 0.397,0.198 0.792,0.398 1.189,0.601 0.075,0.037 0.129,0.062 0.129,0.062 h -0.002 c 1.779,0.909 3.534,1.879 5.135,3.039 1.893,1.373 3.761,2.802 5.454,4.42 l 0.002,-0.007 c 0,0 0.059,0.059 0.161,0.161 0.753,0.73 1.472,1.494 2.14,2.316 0.06,0.076 0.118,0.155 0.177,0.231 2.439,2.855 5.972,7.554 7.223,12.073 l -0.002,-10e-4 c 0.442,1.112 0.825,2.248 1.114,3.421 0.197,0.801 0.366,1.611 0.537,2.419 l 0.016,-0.006 c 0,0 0.509,1.824 0.893,4.451 0.03,0.14 0.058,0.283 0.083,0.424 0.022,0.103 0.027,0.219 0.023,0.338 0.358,2.785 0.53,6.289 -0.134,9.517 L 45.82,-9.455 c -0.237,2.114 -0.609,4.211 -1.223,6.27 -0.339,1.136 -0.864,2.216 -1.305,3.318 l -4.375,7.914 c -0.401,0.517 -0.753,1.1 -1.006,1.705 -0.436,1.042 -0.925,2.079 -1.307,3.138 l -7.589,6.844 c -0.015,-0.13 -0.037,-0.26 -0.052,-0.391 -0.347,-3.261 0.059,-6.489 1.387,-9.549 0.324,-0.751 0.516,-1.571 0.922,-2.269 0.82,-1.404 1.813,-2.71 2.616,-4.126 1.79,-3.156 2.777,-6.627 4.059,-10.017 4.885,-12.899 -6.254,-29.286 -6.254,-29.286 -2.655,-3.403 -5.711,-6.491 -9.656,-8.497 -0.307,-0.157 -0.567,-0.407 -0.872,-0.566 -1.146,-0.594 -2.252,-1.294 -3.457,-1.724 -2.068,-0.739 -4.193,-1.324 -6.306,-1.934 -0.13,-0.035 -0.228,-0.077 -0.319,-0.124 -0.905,-0.269 -2.589,-0.651 -4.46,-0.536 -0.159,0.105 -0.323,0.203 -0.492,0.288 -2.016,0.986 -3.196,2.831 -4.228,4.595 -1.596,2.727 -2.749,5.687 -3.523,8.813 -0.966,3.903 -1.391,7.785 -0.831,11.767 0.096,0.618 0.335,2.056 0.705,3.753 0,0 3.134,13.225 11.408,19.584 H 9.66 c 1.151,0.893 2.359,1.723 3.56,2.539 1.466,0.996 3.128,1.717 4.75,2.459 1.308,0.599 2.649,1.204 4.04,1.52 2.051,0.457 4.156,0.674 6.24,0.967 0.225,0.033 0.411,0.093 0.557,0.182 l -1.688,6.526 c -0.198,0.325 -0.52,0.501 -0.98,0.418 -2.136,-0.382 -4.31,-0.678 -6.37,-1.325 -0.155,-0.048 -0.306,-0.113 -0.462,-0.166 l 0.009,0.014 C 7.712,10.004 -0.061,-0.035 0,0"
         style="fill:#000000;fill-opacity:1;fill-rule:evenodd;stroke:none"
         id="path171" />
    </g>
    <g
       id="g173"
       transform="matrix(0.51965784,0,0,-0.51965784,78.23565,62.105551)"
       inkscape:export-xdpi="96"
       inkscape:export-ydpi="96">
      <path
         d="M 0,0 C 0.812,-0.959 1.601,-1.944 2.36,-2.946 2.969,-3.749 2.905,-4.369 2.138,-5.007 1.483,-5.549 0.787,-6.047 0.076,-6.515 c -0.734,-0.486 -1.237,-0.047 -1.687,0.508 -1.362,1.681 -2.748,3.341 -4.087,5.041 -1.065,1.353 -2.04,2.781 -3.115,4.126 l -12.369,15.413 c -0.56,0.685 -0.453,1.256 0.203,1.789 0.538,0.438 1.069,0.88 1.6,1.33 0.814,0.687 1.636,0.627 2.296,-0.218 1.796,-2.307 3.565,-4.632 5.367,-6.933 0.833,-1.067 1.677,-2.128 2.585,-3.131 z"
         style="fill:#000000;fill-opacity:1;fill-rule:evenodd;stroke:none"
         id="path175" />
    </g>
    <g
       id="g177"
       transform="matrix(0.51965784,0,0,-0.51965784,62.643887,58.525004)"
       inkscape:export-xdpi="96"
       inkscape:export-ydpi="96">
      <path
         d="M 0,0 C 0.015,0.299 -0.07,0.804 0.085,1.214 0.42,2.097 0.837,2.952 1.302,3.774 1.829,4.716 2.699,4.799 3.363,3.969 4.391,2.691 5.344,1.357 6.357,0.068 c 1.187,-1.507 2.41,-2.988 3.608,-4.489 1.097,-1.377 2.178,-2.767 3.276,-4.145 1.199,-1.499 2.401,-2.997 3.619,-4.479 1.021,-1.239 2.09,-2.434 3.097,-3.681 0.555,-0.687 0.197,-1.57 -0.72,-1.827 -0.817,-0.23 -1.647,-0.426 -2.479,-0.595 -0.974,-0.199 -1.824,0.294 -2.492,1.183 -1.11,1.476 -2.312,2.882 -3.448,4.339 -1.231,1.582 -2.404,3.21 -3.654,4.777 C 6.049,-7.448 4.862,-6.101 3.717,-4.726 2.575,-3.351 1.44,-1.974 0.311,-0.587 0.215,-0.469 0.163,-0.312 0,0"
         style="fill:#000000;fill-opacity:1;fill-rule:evenodd;stroke:none"
         id="path179" />
    </g>
    <g
       id="g181"
       transform="matrix(0.51965784,0,0,-0.51965784,73.75132,48.862898)"
       inkscape:export-xdpi="96"
       inkscape:export-ydpi="96">
      <path
         d="M 0,0 C -0.369,1.021 -0.148,1.56 0.68,1.75 1.687,1.982 2.736,2.257 3.75,2.19 4.399,2.147 5.165,1.654 5.613,1.136 c 1.551,-1.812 2.998,-3.714 4.465,-5.598 1.814,-2.33 3.583,-4.701 5.417,-7.017 1.152,-1.453 2.333,-2.893 3.609,-4.235 0.755,-0.792 1.037,-1.517 0.55,-2.522 -0.372,-0.767 -0.639,-1.581 -1.022,-2.34 -0.556,-1.105 -1.363,-1.144 -2.11,-0.199 -2.173,2.754 -4.377,5.483 -6.547,8.238 -1.884,2.39 -3.719,4.817 -5.611,7.199 C 3.176,-3.84 1.917,-2.401 0.698,-0.929 0.398,-0.568 0.134,-0.182 0,0"
         style="fill:#000000;fill-opacity:1;fill-rule:evenodd;stroke:none"
         id="path183" />
    </g>
    <g
       id="g185"
       transform="matrix(0.51965784,0,0,-0.51965784,69.35127,44.974351)"
       inkscape:export-xdpi="96"
       inkscape:export-ydpi="96">
      <path
         d="m 0,0 c -0.902,-0.392 -1.788,-0.836 -2.646,-1.366 -0.448,-0.276 -0.904,-0.545 -1.359,-0.81 l 0.001,-10e-4 c -0.015,-0.007 -0.025,-0.014 -0.039,-0.022 -1.989,-1.162 -4.001,-2.286 -5.744,-3.83 -0.075,-0.066 -0.152,-0.134 -0.227,-0.2 -8.439,-6.754 -11.623,-14.438 -11.623,-14.438 l 0.01,0.004 c -1.8,-3.696 -2.99,-7.627 -3.735,-11.725 -0.159,-0.862 -0.286,-1.737 -0.319,-2.609 -0.055,-1.464 0.054,-2.935 -0.043,-4.394 -0.146,-2.234 0.265,-4.359 0.941,-6.466 0.777,-2.411 1.823,-4.699 3.298,-6.748 0.037,-0.051 0.079,-0.098 0.116,-0.145 3.882,-2.172 9.225,-3.246 11.887,-3.676 -0.006,0.018 -0.019,0.038 -0.023,0.057 1.202,-0.277 2.673,-0.43 3.858,-0.511 0.217,-0.045 0.428,-0.078 0.641,-0.082 0.443,-0.006 0.886,-0.011 1.332,-0.012 0.083,-0.001 0.142,-0.003 0.142,-0.003 1.995,-0.009 4,0.049 5.956,0.345 2.312,0.35 4.627,0.763 6.874,1.424 l -0.002,-0.008 c 0,0 0.079,0.025 0.217,0.068 1.005,0.304 1.995,0.653 2.965,1.077 0.088,0.04 0.174,0.084 0.263,0.124 3.476,1.418 8.772,3.971 11.958,7.413 h -0.003 c 0.903,0.785 1.764,1.618 2.558,2.528 0.544,0.622 1.065,1.264 1.588,1.903 l 0.012,-0.013 c 0,0 1.29,1.387 2.836,3.546 0.091,0.11 0.181,0.225 0.268,0.338 0.066,0.081 0.125,0.182 0.174,0.29 1.597,2.31 3.357,5.344 4.249,8.517 l -0.008,-10e-4 c 0.76,1.987 1.391,4.021 1.79,6.133 0.219,1.164 0.25,2.364 0.363,3.546 l -0.255,9.039 c -0.119,0.644 -0.165,1.324 -0.111,1.977 0.09,1.126 0.132,2.271 0.278,3.387 L 34.836,4.219 C 34.763,4.111 34.683,4.006 34.61,3.897 c -1.805,-2.74 -2.925,-5.793 -3.15,-9.122 -0.055,-0.816 -0.263,-1.632 -0.222,-2.439 0.085,-1.624 0.368,-3.24 0.432,-4.866 0.142,-3.625 -0.573,-7.162 -0.99,-10.763 -1.579,-13.702 -18.995,-23.152 -18.995,-23.152 -3.92,-1.805 -8.053,-3.145 -12.48,-3.118 -0.343,0.001 -0.69,-0.101 -1.034,-0.102 -1.29,-0.002 -2.595,-0.116 -3.862,0.054 -2.176,0.293 -4.332,0.748 -6.489,1.176 -0.132,0.028 -0.239,0.036 -0.341,0.037 -0.929,0.174 -2.599,0.608 -4.209,1.569 -0.093,0.166 -0.194,0.329 -0.305,0.482 -1.339,1.801 -1.541,3.981 -1.649,6.022 -0.167,3.156 0.168,6.314 0.913,9.447 0.933,3.911 2.336,7.556 4.663,10.836 0.367,0.507 1.24,1.674 2.348,3.011 0,0 8.853,10.314 19.122,12.167 L 8.36,-4.863 c 1.432,0.265 2.887,0.448 4.329,0.621 1.759,0.213 3.567,0.091 5.349,0.006 1.438,-0.068 2.906,-0.146 4.288,-0.504 2.029,-0.534 4,-1.308 5.986,-2.004 0.216,-0.073 0.409,-0.106 0.578,-0.093 l 1.496,6.572 c -0.027,0.38 -0.232,0.684 -0.678,0.822 -2.075,0.64 -4.143,1.375 -6.269,1.746 -0.159,0.028 -0.322,0.039 -0.487,0.064 l 0.017,0.008 C 11.442,5.349 -0.07,-0.003 0,0"
         style="fill:#000000;fill-opacity:1;fill-rule:evenodd;stroke:none"
         id="path187" />
    </g>
    <g
       id="g189"
       transform="matrix(0.51965784,0,0,-0.51965784,107.82928,51.821981)"
       inkscape:export-xdpi="96"
       inkscape:export-ydpi="96">
      <path
         d="m 0,0 c 0.124,-1.251 0.215,-2.509 0.271,-3.766 0.045,-1.006 -0.36,-1.481 -1.353,-1.57 -0.846,-0.076 -1.702,-0.089 -2.553,-0.072 -0.882,0.017 -1.046,0.665 -1.101,1.377 -0.167,2.156 -0.366,4.31 -0.503,6.469 -0.11,1.72 -0.101,3.448 -0.224,5.165 l -1.436,19.71 c -0.073,0.883 0.34,1.292 1.184,1.358 0.691,0.056 1.379,0.119 2.072,0.187 1.06,0.104 1.703,-0.412 1.766,-1.482 0.17,-2.919 0.306,-5.837 0.483,-8.755 0.081,-1.351 0.173,-2.703 0.352,-4.044 z"
         style="fill:#000000;fill-opacity:1;fill-rule:evenodd;stroke:none"
         id="path191" />
    </g>
    <g
       id="g193"
       transform="matrix(0.51965784,0,0,-0.51965784,97.02404,40.024402)"
       inkscape:export-xdpi="96"
       inkscape:export-ydpi="96">
      <path
         d="m 0,0 c 0.182,0.237 0.399,0.702 0.76,0.95 0.777,0.537 1.605,1.004 2.454,1.418 0.969,0.477 1.732,0.05 1.809,-1.011 0.12,-1.633 0.148,-3.273 0.251,-4.911 0.121,-1.913 0.288,-3.827 0.421,-5.743 0.123,-1.756 0.224,-3.514 0.346,-5.271 0.135,-1.916 0.274,-3.83 0.437,-5.742 0.138,-1.6 0.339,-3.191 0.46,-4.788 0.068,-0.881 -0.729,-1.405 -1.629,-1.096 -0.805,0.274 -1.599,0.583 -2.379,0.917 -0.916,0.389 -1.335,1.277 -1.381,2.387 -0.076,1.847 -0.267,3.686 -0.376,5.531 -0.115,2.001 -0.157,4.008 -0.298,6.007 -0.122,1.787 -0.334,3.568 -0.496,5.351 -0.161,1.781 -0.313,3.558 -0.456,5.34 C -0.088,-0.508 -0.043,-0.35 0,0"
         style="fill:#000000;fill-opacity:1;fill-rule:evenodd;stroke:none"
         id="path195" />
    </g>
    <g
       id="g197"
       transform="matrix(0.51965784,0,0,-0.51965784,111.65312,38.373814)"
       inkscape:export-xdpi="96"
       inkscape:export-ydpi="96">
      <path
         d="M 0,0 C 0.276,1.05 0.763,1.368 1.552,1.054 2.515,0.673 3.535,0.304 4.33,-0.325 4.842,-0.729 5.19,-1.569 5.267,-2.25 c 0.249,-2.373 0.36,-4.76 0.497,-7.145 0.173,-2.948 0.284,-5.902 0.479,-8.851 0.123,-1.85 0.278,-3.706 0.567,-5.535 0.172,-1.08 -0.006,-1.838 -0.978,-2.388 -0.742,-0.421 -1.423,-0.939 -2.17,-1.348 -1.085,-0.594 -1.771,-0.168 -1.85,1.034 -0.225,3.501 -0.492,7 -0.715,10.499 C 0.903,-12.947 0.77,-9.907 0.563,-6.872 0.436,-4.964 0.217,-3.065 0.048,-1.161 0.007,-0.694 0.007,-0.226 0,0"
         style="fill:#000000;fill-opacity:1;fill-rule:evenodd;stroke:none"
         id="path199" />
    </g>
    <g
       id="g201"
       transform="matrix(0.51965784,0,0,-0.51965784,110.23773,32.674834)"
       inkscape:export-xdpi="96"
       inkscape:export-ydpi="96">
      <path
         d="M 0,0 C -0.966,0.188 -1.947,0.327 -2.954,0.377 -3.479,0.404 -4.009,0.442 -4.532,0.482 V 0.48 c -0.017,0.003 -0.03,0.003 -0.046,0.004 -2.297,0.172 -4.589,0.388 -6.902,0.107 -0.1,-0.012 -0.202,-0.024 -0.301,-0.036 -10.781,-0.772 -17.763,-5.29 -17.763,-5.29 l 0.01,-0.003 c -3.58,-2.022 -6.791,-4.582 -9.73,-7.533 -0.62,-0.62 -1.222,-1.268 -1.744,-1.968 -0.875,-1.174 -1.621,-2.447 -2.53,-3.592 -1.386,-1.757 -2.254,-3.739 -2.895,-5.858 -0.727,-2.426 -1.167,-4.903 -1.113,-7.428 10e-4,-0.063 0.008,-0.126 0.012,-0.185 1.965,-3.992 5.753,-7.908 7.701,-9.773 0.005,0.018 0.006,0.042 0.015,0.059 0.832,-0.91 1.956,-1.87 2.884,-2.61 0.153,-0.16 0.309,-0.308 0.482,-0.432 0.361,-0.255 0.724,-0.511 1.09,-0.765 0.068,-0.047 0.116,-0.083 0.116,-0.083 h -10e-4 c 1.638,-1.14 3.322,-2.231 5.1,-3.097 2.102,-1.024 4.242,-1.997 6.467,-2.73 l -0.006,-0.004 c 0,0 0.08,-0.025 0.218,-0.068 1,-0.319 2.011,-0.593 3.051,-0.796 0.095,-0.016 0.192,-0.03 0.288,-0.047 3.668,-0.806 9.476,-1.708 14.052,-0.684 l -0.003,0.003 c 1.19,0.133 2.371,0.33 3.543,0.628 0.8,0.204 1.594,0.437 2.386,0.666 l 0.004,-0.017 c 0,0 1.847,0.41 4.346,1.309 0.137,0.039 0.277,0.083 0.412,0.127 0.101,0.029 0.207,0.079 0.31,0.138 2.626,0.997 5.797,2.496 8.331,4.602 l -0.008,0.004 c 1.754,1.205 3.429,2.521 4.956,4.033 0.841,0.834 1.547,1.804 2.312,2.714 l 4.921,7.586 c 0.266,0.598 0.614,1.185 1.029,1.692 0.714,0.875 1.396,1.794 2.151,2.63 l 2.462,9.919 c -0.12,-0.048 -0.246,-0.09 -0.369,-0.138 -3.04,-1.231 -5.695,-3.109 -7.769,-5.722 -0.509,-0.64 -1.144,-1.195 -1.568,-1.882 -0.851,-1.385 -1.536,-2.877 -2.407,-4.251 -1.941,-3.066 -4.536,-5.572 -6.924,-8.3 -9.076,-10.385 -28.779,-8.28 -28.779,-8.28 -4.252,0.739 -8.416,1.981 -12.044,4.516 -0.282,0.195 -0.626,0.308 -0.909,0.502 -1.064,0.731 -2.202,1.377 -3.149,2.237 -1.626,1.476 -3.144,3.074 -4.677,4.652 -0.092,0.097 -0.176,0.164 -0.258,0.222 -0.666,0.671 -1.796,1.977 -2.575,3.681 0.017,0.19 0.027,0.381 0.023,0.57 -0.08,2.243 0.99,4.153 2.059,5.894 1.655,2.694 3.723,5.104 6.114,7.26 2.989,2.691 6.213,4.895 9.989,6.276 0.59,0.208 1.971,0.673 3.644,1.145 0,0 13.141,3.468 22.648,-0.836 L 4.123,-8.75 c 1.329,-0.595 2.631,-1.27 3.917,-1.944 1.568,-0.825 2.987,-1.95 4.406,-3.032 1.146,-0.872 2.31,-1.77 3.244,-2.848 1.369,-1.592 2.552,-3.348 3.793,-5.049 0.134,-0.182 0.276,-0.318 0.422,-0.405 l 4.961,4.564 c 0.195,0.327 0.198,0.694 -0.092,1.061 -1.344,1.704 -2.629,3.483 -4.17,4.996 -0.114,0.113 -0.243,0.216 -0.364,0.328 l 0.019,-0.002 C 12.457,-2.091 -0.06,0.037 0,0"
         style="fill:#000000;fill-opacity:1;fill-rule:evenodd;stroke:none"
         id="path203" />
    </g>
    <g
       id="g205"
       transform="matrix(0.51965784,0,0,-0.51965784,136.37085,61.319725)"
       inkscape:export-xdpi="96"
       inkscape:export-ydpi="96">
      <path
         d="m 0,0 c -0.815,-0.957 -1.658,-1.895 -2.525,-2.807 -0.694,-0.73 -1.316,-0.768 -2.069,-0.113 -0.642,0.556 -1.245,1.163 -1.823,1.789 -0.6,0.646 -0.246,1.214 0.229,1.747 1.437,1.616 2.851,3.254 4.311,4.849 1.162,1.272 2.413,2.465 3.565,3.744 l 13.204,14.704 c 0.586,0.665 1.167,0.651 1.799,0.089 0.521,-0.459 1.042,-0.911 1.573,-1.363 0.809,-0.692 0.882,-1.513 0.156,-2.3 C 16.436,18.191 14.428,16.07 12.449,13.918 11.531,12.923 10.621,11.92 9.778,10.861 Z"
         style="fill:#000000;fill-opacity:1;fill-rule:evenodd;stroke:none"
         id="path207" />
    </g>
    <g
       id="g209"
       transform="matrix(0.51965784,0,0,-0.51965784,137.37669,45.35344)"
       inkscape:export-xdpi="96"
       inkscape:export-ydpi="96">
      <path
         d="m 0,0 c 0.296,0.034 0.782,0.2 1.211,0.112 0.926,-0.187 1.836,-0.46 2.724,-0.785 1.014,-0.368 1.236,-1.213 0.526,-2.004 -1.094,-1.219 -2.257,-2.376 -3.364,-3.586 -1.294,-1.415 -2.558,-2.862 -3.846,-4.287 -1.18,-1.306 -2.375,-2.598 -3.558,-3.905 -1.285,-1.427 -2.569,-2.854 -3.833,-4.297 -1.057,-1.208 -2.063,-2.457 -3.131,-3.652 -0.587,-0.66 -1.518,-0.45 -1.919,0.414 -0.36,0.769 -0.688,1.556 -0.99,2.349 -0.353,0.93 -0.005,1.847 0.764,2.65 1.277,1.336 2.47,2.75 3.723,4.107 1.362,1.471 2.778,2.894 4.122,4.381 1.202,1.328 2.338,2.715 3.509,4.068 1.172,1.352 2.348,2.693 3.532,4.033 C -0.429,-0.289 -0.282,-0.211 0,0"
         style="fill:#000000;fill-opacity:1;fill-rule:evenodd;stroke:none"
         id="path211" />
    </g>
    <g
       id="g213"
       transform="matrix(0.51965784,0,0,-0.51965784,148.71121,54.747347)"
       inkscape:export-xdpi="96"
       inkscape:export-ydpi="96">
      <path
         d="m 0,0 c 0.947,0.529 1.515,0.397 1.836,-0.389 0.393,-0.957 0.835,-1.947 0.934,-2.956 0.061,-0.65 -0.3,-1.485 -0.74,-2.01 -1.536,-1.825 -3.178,-3.562 -4.801,-5.314 -2.003,-2.168 -4.056,-4.297 -6.045,-6.483 -1.247,-1.373 -2.476,-2.77 -3.594,-4.248 -0.658,-0.872 -1.328,-1.27 -2.4,-0.952 -0.816,0.244 -1.662,0.374 -2.473,0.629 -1.182,0.369 -1.35,1.16 -0.539,2.05 2.365,2.59 4.702,5.209 7.068,7.797 2.053,2.246 4.15,4.449 6.194,6.704 1.286,1.415 2.501,2.89 3.757,4.333 C -0.495,-0.487 -0.158,-0.163 0,0"
         style="fill:#000000;fill-opacity:1;fill-rule:evenodd;stroke:none"
         id="path215" />
    </g>
    <g
       id="g217"
       transform="matrix(0.51965784,0,0,-0.51965784,151.83525,49.775833)"
       inkscape:export-xdpi="96"
       inkscape:export-ydpi="96">
      <path
         d="M 0,0 C -0.534,0.826 -1.115,1.629 -1.777,2.391 -2.122,2.786 -2.461,3.194 -2.796,3.6 L -2.797,3.599 c -0.01,0.013 -0.018,0.023 -0.029,0.035 -1.469,1.774 -2.904,3.576 -4.71,5.047 -0.077,0.063 -0.156,0.129 -0.235,0.191 -8.032,7.232 -16.13,9.129 -16.13,9.129 l 0.005,-0.009 c -3.94,1.177 -8.01,1.714 -12.174,1.785 -0.878,0.017 -1.761,10e-4 -2.627,-0.108 -1.454,-0.184 -2.888,-0.529 -4.343,-0.669 -2.229,-0.219 -4.258,-0.969 -6.228,-1.977 -2.253,-1.159 -4.341,-2.56 -6.125,-4.35 -0.044,-0.044 -0.084,-0.093 -0.124,-0.136 -1.514,-4.185 -1.707,-9.63 -1.7,-12.326 0.017,0.009 0.035,0.024 0.054,0.031 -0.079,-1.231 0.008,-2.706 0.119,-3.89 -0.009,-0.221 -0.008,-0.435 0.023,-0.646 0.066,-0.436 0.134,-0.875 0.205,-1.316 0.012,-0.081 0.02,-0.14 0.02,-0.14 v 0 c 0.315,-1.971 0.695,-3.94 1.305,-5.821 0.72,-2.225 1.504,-4.443 2.519,-6.554 l -0.007,0.001 c 0,0 0.038,-0.074 0.101,-0.203 0.465,-0.942 0.968,-1.861 1.544,-2.75 0.054,-0.08 0.111,-0.159 0.165,-0.24 1.963,-3.201 5.341,-8.012 9.253,-10.598 v 0.003 c 0.921,-0.763 1.883,-1.479 2.909,-2.115 0.703,-0.436 1.42,-0.846 2.135,-1.258 l -0.01,-0.014 c 0,0 1.577,-1.047 3.959,-2.223 0.123,-0.072 0.251,-0.143 0.376,-0.21 0.09,-0.052 0.2,-0.093 0.315,-0.126 2.539,-1.201 5.818,-2.446 9.093,-2.812 l -0.002,0.008 c 2.083,-0.427 4.194,-0.721 6.341,-0.773 1.185,-0.027 2.374,0.137 3.558,0.219 l 8.879,1.715 c 0.616,0.222 1.279,0.378 1.932,0.432 1.126,0.092 2.263,0.237 3.388,0.273 l 8.853,5.106 c -0.118,0.054 -0.235,0.115 -0.354,0.169 -2.996,1.337 -6.191,1.948 -9.513,1.629 -0.814,-0.076 -1.652,-0.004 -2.442,-0.175 -1.588,-0.348 -3.138,-0.889 -4.73,-1.215 -3.556,-0.727 -7.164,-0.595 -10.784,-0.767 -13.776,-0.663 -25.923,14.99 -25.923,14.99 -2.418,3.577 -4.41,7.437 -5.099,11.809 -0.056,0.339 -0.213,0.665 -0.27,1.004 -0.212,1.273 -0.536,2.542 -0.573,3.82 -0.063,2.195 0.036,4.397 0.109,6.594 0.006,0.135 -0.003,0.242 -0.019,0.342 0.021,0.944 0.18,2.664 0.866,4.407 0.15,0.12 0.293,0.246 0.427,0.379 1.559,1.614 3.678,2.167 5.675,2.603 3.087,0.678 6.257,0.859 9.469,0.631 4.011,-0.286 7.835,-1.08 11.449,-2.843 0.56,-0.281 1.852,-0.954 3.352,-1.83 0,0 11.612,-7.064 15.105,-16.897 l 10e-4,0.002 c 0.494,-1.371 0.909,-2.776 1.316,-4.17 0.494,-1.702 0.667,-3.505 0.871,-5.277 0.166,-1.43 0.326,-2.892 0.199,-4.313 -0.199,-2.089 -0.643,-4.16 -1.007,-6.234 -0.039,-0.223 -0.039,-0.419 10e-4,-0.585 l 6.728,-0.409 c 0.37,0.088 0.637,0.339 0.701,0.802 0.295,2.15 0.685,4.31 0.706,6.469 0.003,0.161 -0.012,0.325 -0.014,0.49 l 0.01,-0.014 C 7.133,-10.424 -0.014,0.068 0,0"
         style="fill:#000000;fill-opacity:1;fill-rule:evenodd;stroke:none"
         id="path219" />
    </g>
    <text
       xml:space="preserve"
       style="font-style:normal;font-weight:normal;font-size:10.5833px;line-height:1.25;font-family:sans-serif;fill:#000000;fill-opacity:1;stroke:none;stroke-width:0.264583"
       x="207.5495"
       y="139.98763"
       id="text2210"
       inkscape:export-filename="/home/koeng/text2210.png"
       inkscape:export-xdpi="96"
       inkscape:export-ydpi="96"><tspan
         sodipodi:role="line"
         id="tspan2208"
         x="207.5495"
         y="139.98763"
         style="stroke-width:0.264583" /></text>
  </g>
</svg>
